<svg xmlns="http://www.w3.org/2000/svg" version="1.1" xmlns:xlink="http://www.w3.org/1999/xlink" xmlns:svgjs="http://svgjs.com/svgjs" width="1440" height="560" preserveAspectRatio="none" viewBox="0 0 1440 560"><g mask="url(&quot;#SvgjsMask1000&quot;)" fill="none"><rect width="1440" height="560" x="0" y="0" fill="#0e2a47"></rect><path d="M251.48 658.12C394.04 634.42 459.96 289.77 693.52 285.62 927.09 281.47 914.55 355.62 1135.57 355.62 1356.59 355.62 1465.72 285.84 1577.61 285.62" stroke="rgba(51,121,194,0.58)" stroke-width="2"></path><path d="M508.47 669.27C645.32 628.14 597.51 239.62 884.42 238.7 1171.33 237.78 1440.59 454.9 1636.32 457.1" stroke="rgba(51,121,194,0.58)" stroke-width="2"></path><path d="M209.2 633.45C332.72 624.8 419.22 387.02 638.31 386.1 857.4 385.18 852.86 456.1 1067.42 456.1 1281.97 456.1 1387.83 386.33 1496.53 386.1" stroke="rgba(51,121,194,0.58)" stroke-width="2"></path><path d="M448.14 591.49C631.51 576.59 756.97 207.78 1075.56 206.93 1394.15 206.08 1540.96 368.02 1702.98 369.33" stroke="rgba(51,121,194,0.58)" stroke-width="2"></path><path d="M271 606.78C446.59 606.78 614.31 591.31 973.15 589.69 1331.99 588.07 1486.39 314.79 1675.3 309.69" stroke="rgba(51,121,194,0.58)" stroke-width="2"></path></g><defs><mask id="SvgjsMask1000"><rect width="1440" height="560" fill="#ffffff"></rect></mask></defs></svg>