<svg xmlns="http://www.w3.org/2000/svg" version="1.1" xmlns:xlink="http://www.w3.org/1999/xlink" xmlns:svgjs="http://svgjs.com/svgjs" width="1440" height="250" preserveAspectRatio="none" viewBox="0 0 1440 250"><g mask="url(&quot;#SvgjsMask1048&quot;)" fill="none"><rect width="1440" height="250" x="0" y="0" fill="#0e2a47"></rect><path d="M20 250L270 0L574.5 0L324.5 250z" fill="url(#SvgjsLinearGradient1049)"></path><path d="M277.6 250L527.6 0L653.6 0L403.6 250z" fill="url(#SvgjsLinearGradient1049)"></path><path d="M480.20000000000005 250L730.2 0L794.7 0L544.7 250z" fill="url(#SvgjsLinearGradient1049)"></path><path d="M734.8000000000001 250L984.8000000000001 0L1247.3000000000002 0L997.3000000000001 250z" fill="url(#SvgjsLinearGradient1049)"></path><path d="M1432 250L1182 0L877.5 0L1127.5 250z" fill="url(#SvgjsLinearGradient1050)"></path><path d="M1175.4 250L925.4000000000001 0L868.4000000000001 0L1118.4 250z" fill="url(#SvgjsLinearGradient1050)"></path><path d="M960.8 250L710.8 0L596.8 0L846.8 250z" fill="url(#SvgjsLinearGradient1050)"></path><path d="M688.1999999999999 250L438.19999999999993 0L364.69999999999993 0L614.6999999999999 250z" fill="url(#SvgjsLinearGradient1050)"></path><path d="M1252.8102168183302 250L1440 62.81021681833022L1440 250z" fill="url(#SvgjsLinearGradient1049)"></path><path d="M0 250L187.18978318166978 250L 0 62.81021681833022z" fill="url(#SvgjsLinearGradient1050)"></path></g><defs><mask id="SvgjsMask1048"><rect width="1440" height="250" fill="#ffffff"></rect></mask><linearGradient x1="0%" y1="100%" x2="100%" y2="0%" id="SvgjsLinearGradient1049"><stop stop-color="rgba(15, 70, 185, 0.2)" offset="0"></stop><stop stop-opacity="0" stop-color="rgba(15, 70, 185, 0.2)" offset="0.66"></stop></linearGradient><linearGradient x1="100%" y1="100%" x2="0%" y2="0%" id="SvgjsLinearGradient1050"><stop stop-color="rgba(15, 70, 185, 0.2)" offset="0"></stop><stop stop-opacity="0" stop-color="rgba(15, 70, 185, 0.2)" offset="0.66"></stop></linearGradient></defs></svg>